<?xml version="1.0" encoding="UTF-8" ?>
<!DOCTYPE svg PUBLIC "-//W3C//DTD SVG 1.1//EN" "http://www.w3.org/Graphics/SVG/1.1/DTD/svg11.dtd">
<svg width="971pt" height="425pt" viewBox="0 0 971 425" version="1.1" xmlns="http://www.w3.org/2000/svg">
<g id="#ffffffff">
</g>
<g id="#008ed8ff">
<path fill="#008ed8" opacity="1.00" d=" M 48.00 1.75 C 63.59 1.75 79.17 1.74 94.75 1.75 C 94.75 17.25 94.74 32.75 94.75 48.25 C 141.58 48.26 188.41 48.25 235.25 48.25 C 235.25 65.43 235.28 82.60 235.23 99.78 C 223.67 86.47 206.10 80.10 188.90 78.66 C 170.82 77.29 151.98 78.68 135.29 86.29 C 123.65 91.56 113.50 100.95 109.05 113.12 C 104.88 124.78 104.85 138.05 109.49 149.57 C 113.51 159.45 121.75 167.03 131.06 171.94 C 147.17 180.58 165.50 183.19 182.93 188.00 C 188.62 189.80 194.87 191.43 199.05 195.98 C 202.42 199.66 201.79 205.91 198.03 209.08 C 193.61 212.88 187.54 213.75 181.93 214.20 C 173.82 214.76 164.89 212.99 159.04 206.95 C 156.28 204.29 154.92 200.62 153.89 197.02 C 136.67 196.99 119.45 197.02 102.23 197.00 C 102.91 212.11 111.06 226.04 122.63 235.49 C 97.76 235.53 72.89 235.49 48.01 235.51 C 47.98 188.76 48.02 142.00 47.99 95.25 C 32.50 95.26 17.00 95.25 1.51 95.25 C 1.49 79.58 1.50 63.92 1.50 48.25 C 17.00 48.26 32.50 48.25 48.00 48.25 C 48.01 32.75 47.99 17.25 48.00 1.75 M 48.25 48.75 C 48.25 64.16 48.26 79.58 48.25 94.99 C 63.66 95.01 79.08 94.99 94.50 95.00 C 94.49 79.58 94.50 64.17 94.49 48.75 C 79.08 48.74 63.67 48.75 48.25 48.75 Z" />
<path fill="#008ed8" opacity="1.00" d=" M 160.98 119.08 C 165.13 116.41 170.26 116.14 175.04 116.01 C 181.37 116.15 188.39 117.18 193.06 121.88 C 195.42 124.08 196.35 127.26 197.26 130.25 C 209.92 130.25 222.58 130.26 235.24 130.25 C 235.26 140.29 235.26 150.33 235.25 160.37 C 218.20 148.63 197.27 145.59 177.74 140.21 C 171.55 138.33 164.81 136.60 160.16 131.82 C 156.70 128.43 156.78 121.83 160.98 119.08 Z" />
<path fill="#008ed8" opacity="1.00" d=" M 333.99 134.99 C 345.91 126.55 361.24 124.49 375.48 126.20 C 385.66 127.39 395.91 131.38 402.95 139.07 C 410.40 146.89 413.85 157.65 414.90 168.22 C 404.19 168.28 393.48 168.25 382.77 168.24 C 381.75 164.35 380.57 160.29 377.65 157.37 C 372.79 152.02 364.41 151.30 358.00 154.01 C 352.23 156.40 348.81 162.24 347.15 168.00 C 344.74 176.75 344.76 186.16 347.05 194.93 C 348.64 200.79 352.10 206.67 357.84 209.24 C 363.28 211.53 369.98 211.39 374.99 208.10 C 379.74 204.54 381.61 198.55 382.86 193.00 C 393.69 192.99 404.51 192.98 415.34 193.01 C 415.40 206.77 408.35 220.20 397.21 228.22 C 385.00 237.43 368.63 239.19 353.93 236.50 C 341.33 234.33 329.71 227.08 322.36 216.60 C 313.00 203.15 310.66 185.85 313.14 169.91 C 315.19 156.19 322.34 142.86 333.99 134.99 Z" />
<path fill="#008ed8" opacity="1.00" d=" M 587.02 138.04 C 594.93 129.55 606.85 126.31 618.09 125.60 C 627.31 125.19 636.75 126.20 645.40 129.57 C 653.52 132.72 660.60 139.05 663.71 147.29 C 665.37 151.50 665.87 156.02 666.36 160.48 C 655.97 160.55 645.59 160.45 635.21 160.53 C 634.91 158.22 634.82 155.63 633.04 153.89 C 628.84 149.28 621.85 148.77 616.10 150.03 C 612.90 150.72 609.14 153.23 609.83 156.98 C 610.79 161.20 615.40 162.70 618.98 164.07 C 631.77 168.26 645.71 169.46 657.43 176.55 C 664.12 180.55 669.29 187.34 670.30 195.19 C 671.74 205.50 669.42 217.16 661.48 224.44 C 651.44 234.41 636.59 237.24 622.96 237.53 C 607.97 237.69 591.25 233.78 581.46 221.55 C 576.17 215.32 574.39 207.00 574.15 199.03 C 585.15 198.95 596.16 199.01 607.17 199.00 C 607.46 203.98 609.04 209.69 614.04 211.87 C 620.33 214.36 628.08 214.77 634.00 211.11 C 638.57 208.39 639.02 200.39 633.60 198.35 C 620.45 192.34 605.60 190.97 592.68 184.34 C 586.50 180.98 580.88 175.66 579.30 168.57 C 576.99 158.01 579.15 145.86 587.02 138.04 Z" />
<path fill="#008ed8" opacity="1.00" d=" M 772.01 128.25 C 781.92 128.25 791.83 128.26 801.74 128.24 C 801.75 163.83 801.74 199.41 801.75 235.00 C 791.83 235.00 781.92 235.00 772.00 235.00 C 772.00 199.41 771.99 163.83 772.01 128.25 Z" />
<path fill="#008ed8" opacity="1.00" d=" M 525.49 157.25 C 525.50 149.41 525.49 141.58 525.50 133.75 C 535.42 133.74 545.33 133.75 555.25 133.75 C 555.26 141.58 555.24 149.42 555.26 157.25 C 560.59 157.25 565.92 157.25 571.26 157.25 C 571.25 163.42 571.26 169.59 571.24 175.76 C 565.91 175.74 560.58 175.74 555.26 175.76 C 555.27 184.86 555.22 193.96 555.27 203.06 C 555.42 206.08 555.58 209.81 558.41 211.63 C 562.36 213.67 567.00 212.73 571.24 212.47 C 571.26 220.02 571.25 227.56 571.25 235.11 C 560.83 235.25 550.25 237.28 539.95 234.84 C 534.44 233.71 529.58 229.77 527.43 224.57 C 525.89 220.59 525.47 216.26 525.48 212.02 C 525.51 199.93 525.49 187.84 525.49 175.76 C 521.07 175.74 516.66 175.75 512.25 175.75 C 512.24 169.58 512.25 163.42 512.25 157.25 C 516.66 157.26 521.07 157.25 525.49 157.25 Z" />
<path fill="#008ed8" opacity="1.00" d=" M 921.25 133.76 C 931.16 133.73 941.08 133.75 951.00 133.75 C 951.01 141.58 950.99 149.41 951.01 157.25 C 956.33 157.26 961.66 157.25 966.99 157.25 C 967.01 163.42 967.00 169.59 967.00 175.76 C 961.66 175.75 956.33 175.74 951.01 175.75 C 951.02 184.50 950.98 193.25 951.01 202.01 C 951.19 205.18 951.06 209.03 953.71 211.30 C 957.66 213.82 962.60 212.72 967.00 212.47 C 967.01 220.01 967.00 227.55 967.00 235.09 C 956.53 235.27 945.87 237.30 935.52 234.79 C 929.92 233.52 924.88 229.44 922.98 223.96 C 921.53 219.81 921.21 215.36 921.24 210.99 C 921.27 199.25 921.25 187.50 921.25 175.76 C 916.83 175.74 912.42 175.74 908.01 175.75 C 907.99 169.58 907.99 163.41 908.01 157.24 C 912.41 157.25 916.83 157.26 921.24 157.25 C 921.26 149.42 921.25 141.59 921.25 133.76 Z" />
<path fill="#008ed8" opacity="1.00" d=" M 451.62 156.42 C 462.03 154.73 472.73 154.81 483.14 156.43 C 489.77 157.70 497.01 160.20 500.76 166.23 C 503.82 170.88 504.08 176.62 504.25 182.01 C 504.28 194.68 504.22 207.36 504.26 220.03 C 504.27 225.23 505.23 230.46 507.82 235.01 C 497.61 234.97 487.40 235.04 477.19 234.98 C 476.77 232.61 476.40 230.23 476.10 227.85 C 469.64 235.21 459.33 237.19 449.97 236.96 C 442.67 236.66 434.83 234.80 429.63 229.32 C 423.67 223.44 422.66 214.15 424.60 206.34 C 426.06 200.40 430.92 195.92 436.28 193.34 C 445.12 189.29 454.96 188.66 464.45 187.25 C 467.53 186.73 470.84 186.46 473.47 184.60 C 476.74 182.15 476.01 176.40 472.45 174.54 C 468.44 172.34 463.39 172.58 459.24 174.27 C 456.45 175.35 455.44 178.38 454.71 181.00 C 445.53 181.00 436.35 181.01 427.17 181.00 C 427.69 176.04 428.61 170.86 431.76 166.82 C 436.51 160.69 444.15 157.61 451.62 156.42 M 457.92 205.93 C 454.07 207.53 452.84 213.21 455.93 216.10 C 460.89 221.45 470.91 219.53 474.09 213.11 C 476.07 209.16 475.41 204.63 475.51 200.38 C 469.93 203.11 463.56 203.43 457.92 205.93 Z" />
<path fill="#008ed8" opacity="1.00" d=" M 702.92 156.53 C 713.21 154.73 723.80 154.83 734.13 156.28 C 740.67 157.41 747.69 159.65 751.86 165.17 C 755.32 169.63 755.93 175.47 756.01 180.93 C 756.00 192.96 756.00 204.99 755.99 217.02 C 756.03 223.18 756.46 229.60 759.68 235.02 C 749.47 234.98 739.26 235.00 729.06 235.01 C 728.58 232.62 728.27 230.20 728.14 227.78 C 721.36 235.32 710.67 237.34 700.97 236.92 C 693.74 236.56 686.13 234.43 681.07 228.97 C 675.40 222.86 674.41 213.61 676.61 205.83 C 678.25 199.78 683.39 195.39 688.94 192.94 C 697.66 189.27 707.20 188.60 716.46 187.23 C 719.54 186.70 722.90 186.43 725.49 184.46 C 728.50 181.95 727.83 176.46 724.42 174.60 C 720.63 172.39 715.88 172.65 711.82 173.90 C 708.70 174.83 707.22 178.04 706.69 181.00 C 697.49 180.98 688.28 181.07 679.08 180.95 C 679.48 175.68 680.64 170.20 684.15 166.07 C 688.86 160.59 695.91 157.68 702.92 156.53 M 709.94 205.85 C 706.18 207.27 704.71 212.52 707.31 215.62 C 711.99 221.34 722.13 219.89 725.65 213.58 C 727.93 209.56 727.47 204.77 727.51 200.33 C 721.93 203.06 715.59 203.41 709.94 205.85 Z" />
<path fill="#008ed8" opacity="1.00" d=" M 818.49 157.26 C 828.41 157.24 838.32 157.26 848.24 157.25 C 848.30 171.83 848.19 186.42 848.29 201.00 C 848.57 204.57 848.86 208.73 851.67 211.31 C 856.70 215.02 864.74 213.17 867.68 207.65 C 869.17 204.69 869.46 201.30 869.51 198.03 C 869.49 184.44 869.49 170.84 869.51 157.25 C 879.50 157.26 889.50 157.24 899.50 157.26 C 899.51 183.16 899.49 209.07 899.51 234.98 C 889.84 235.02 880.17 234.98 870.50 235.00 C 870.48 231.80 870.47 228.61 870.55 225.41 C 866.72 230.51 861.34 234.52 855.05 235.93 C 846.04 238.05 835.72 237.51 828.06 231.84 C 821.80 227.34 818.53 219.60 818.50 212.01 C 818.48 193.76 818.51 175.51 818.49 157.26 Z" />
</g>
<g id="#000000ff">
<path fill="#000000" opacity="1.00" d=" M 318.01 312.04 C 323.59 308.18 331.32 308.00 337.45 310.61 C 342.30 312.71 344.65 317.94 344.87 322.98 C 343.39 322.98 341.92 322.99 340.45 323.00 C 339.96 320.40 339.55 317.48 337.35 315.71 C 332.93 311.96 325.85 311.95 321.12 315.10 C 317.03 317.76 316.46 324.55 320.71 327.32 C 327.21 331.41 335.82 330.21 342.03 334.96 C 346.46 338.32 346.87 344.88 344.94 349.73 C 343.15 354.22 338.42 356.63 333.87 357.34 C 327.92 358.32 321.19 357.67 316.47 353.59 C 313.36 350.81 312.21 346.57 312.11 342.54 C 313.56 342.50 315.03 342.48 316.49 342.45 C 317.16 346.37 318.78 350.68 322.77 352.28 C 327.75 354.49 334.48 354.54 338.69 350.75 C 342.36 347.53 342.43 340.66 338.08 338.01 C 331.37 333.88 322.34 335.12 316.33 329.62 C 311.55 324.85 312.44 315.86 318.01 312.04 Z" />
<path fill="#000000" opacity="1.00" d=" M 513.03 315.95 C 518.54 308.87 528.86 307.47 537.03 309.96 C 543.10 311.81 547.03 317.59 547.95 323.68 C 546.38 323.72 544.83 323.76 543.28 323.81 C 542.16 320.08 540.35 316.19 536.64 314.44 C 530.73 311.73 522.74 312.09 518.18 317.14 C 514.09 321.27 512.98 327.36 512.80 332.95 C 512.90 337.94 513.62 343.19 516.46 347.44 C 521.34 355.14 534.07 355.94 539.78 348.79 C 541.69 346.56 542.72 343.77 543.64 341.03 C 545.24 341.01 546.83 340.99 548.45 340.98 C 547.25 345.62 545.32 350.35 541.48 353.43 C 535.67 358.13 527.30 358.70 520.41 356.35 C 513.34 353.72 509.47 346.22 508.63 339.08 C 507.70 331.25 508.10 322.49 513.03 315.95 Z" />
<path fill="#000000" opacity="1.00" d=" M 478.00 309.99 C 479.49 309.99 481.00 310.00 482.50 310.01 C 482.50 312.00 482.50 314.00 482.51 316.00 C 481.00 316.00 479.49 316.00 478.00 316.00 C 477.99 314.00 477.99 311.99 478.00 309.99 Z" />
<path fill="#000000" opacity="1.00" d=" M 645.48 310.01 C 646.82 310.01 648.16 310.01 649.52 310.02 C 649.48 325.51 649.51 341.01 649.50 356.50 C 648.50 356.50 646.50 356.50 645.50 356.50 C 645.49 341.01 645.51 325.51 645.48 310.01 Z" />
<path fill="#000000" opacity="1.00" d=" M 664.45 310.53 C 666.23 310.50 668.03 310.49 669.83 310.47 C 672.37 313.52 674.79 316.66 677.21 319.80 C 675.97 319.76 674.73 319.73 673.50 319.69 C 670.52 316.60 667.43 313.62 664.45 310.53 Z" />
<path fill="#000000" opacity="1.00" d=" M 593.00 313.75 C 594.33 313.74 595.66 313.74 597.00 313.75 C 597.00 316.83 597.00 319.91 597.00 323.00 C 599.08 322.99 601.16 322.99 603.25 323.00 C 603.25 323.88 603.25 325.63 603.25 326.51 C 601.17 326.50 599.10 326.49 597.04 326.48 C 597.04 334.68 596.87 342.89 597.09 351.09 C 597.04 354.61 601.46 353.48 603.66 353.35 C 603.59 354.16 603.44 355.76 603.37 356.56 C 600.82 357.35 597.91 357.80 595.39 356.72 C 593.37 355.64 592.91 353.17 592.99 351.09 C 592.99 342.89 593.01 334.70 593.00 326.50 C 591.41 326.50 589.83 326.50 588.26 326.51 C 588.24 325.34 588.24 324.17 588.24 323.00 C 589.82 323.00 591.40 322.99 593.00 323.00 C 592.99 319.91 592.99 316.83 593.00 313.75 Z" />
<path fill="#000000" opacity="1.00" d=" M 355.88 326.95 C 361.41 320.37 373.41 320.40 378.31 327.69 C 380.97 331.47 381.47 336.23 381.61 340.72 C 372.94 340.79 364.27 340.72 355.60 340.76 C 355.98 345.60 357.86 351.23 362.90 352.98 C 368.53 355.32 375.46 351.97 376.93 346.00 C 378.45 346.00 379.98 346.01 381.51 346.03 C 379.99 350.50 377.27 355.11 372.46 356.55 C 367.34 357.92 361.25 357.75 356.96 354.28 C 353.09 351.09 351.61 345.87 351.47 341.03 C 351.24 336.03 352.45 330.73 355.88 326.95 M 359.69 328.72 C 357.31 330.94 356.49 334.20 355.73 337.24 C 362.96 337.25 370.19 337.26 377.42 337.24 C 376.94 334.95 376.70 332.53 375.40 330.53 C 372.42 325.05 363.92 324.35 359.69 328.72 Z" />
<path fill="#000000" opacity="1.00" d=" M 392.96 328.52 C 394.85 324.08 399.33 321.83 404.01 321.89 C 403.99 323.37 403.98 324.86 403.98 326.36 C 399.37 326.24 394.74 329.01 393.78 333.73 C 392.20 341.19 393.35 348.92 393.00 356.50 C 391.66 356.50 390.33 356.50 389.00 356.50 C 389.00 345.34 389.00 334.17 389.00 323.00 C 390.33 322.99 391.67 322.99 393.01 323.00 C 393.00 324.84 392.99 326.68 392.96 328.52 Z" />
<path fill="#000000" opacity="1.00" d=" M 444.87 326.86 C 450.18 320.71 461.05 320.45 466.46 326.60 C 469.79 330.49 470.41 335.81 470.59 340.74 C 461.92 340.77 453.26 340.72 444.59 340.76 C 444.85 345.91 447.15 351.86 452.66 353.24 C 458.21 355.06 464.43 351.63 465.92 346.00 C 467.43 346.00 468.94 346.01 470.46 346.04 C 468.89 351.02 465.35 356.01 459.89 356.96 C 455.14 357.71 449.67 357.55 445.87 354.21 C 441.71 350.82 440.37 345.16 440.46 340.01 C 440.32 335.31 441.73 330.44 444.87 326.86 M 450.51 327.25 C 446.99 329.35 445.48 333.43 444.68 337.24 C 451.89 337.25 459.10 337.25 466.32 337.24 C 465.90 334.72 465.55 332.05 463.97 329.94 C 461.16 325.65 454.79 324.79 450.51 327.25 Z" />
<path fill="#000000" opacity="1.00" d=" M 559.84 324.87 C 564.85 321.43 571.84 321.05 577.26 323.74 C 580.39 325.12 581.77 328.69 581.74 331.93 C 581.79 337.60 581.72 343.26 581.73 348.93 C 582.03 350.35 581.18 352.82 582.99 353.42 C 583.72 353.38 585.16 353.31 585.89 353.28 C 585.80 354.36 585.72 355.45 585.66 356.54 C 583.38 356.87 580.48 357.46 578.71 355.60 C 578.44 354.80 577.90 353.19 577.63 352.39 C 572.72 357.23 564.57 359.03 558.46 355.47 C 553.07 352.37 552.84 343.48 558.11 340.15 C 563.44 336.64 570.15 337.70 576.00 335.84 C 578.65 334.48 578.00 330.49 576.53 328.44 C 573.60 325.07 568.33 325.31 564.47 326.65 C 561.60 327.61 560.59 330.63 559.84 333.25 C 558.48 333.25 557.11 333.24 555.76 333.24 C 556.27 330.16 557.10 326.75 559.84 324.87 M 562.21 342.25 C 557.99 343.81 557.40 350.60 561.57 352.55 C 566.20 354.67 572.35 353.41 575.78 349.61 C 578.30 346.76 577.62 342.70 577.84 339.21 C 572.79 341.04 567.13 340.08 562.21 342.25 Z" />
<path fill="#000000" opacity="1.00" d=" M 613.59 324.64 C 618.26 321.54 624.57 321.26 629.73 323.23 C 632.99 324.37 634.97 327.69 635.16 331.04 C 635.58 338.52 634.78 346.04 635.58 353.49 C 636.51 353.41 638.36 353.25 639.29 353.17 C 639.27 353.98 639.25 355.61 639.24 356.43 C 637.19 356.79 634.99 357.33 633.04 356.32 C 631.56 355.58 631.55 353.75 631.07 352.39 C 626.08 357.26 617.78 359.08 611.65 355.33 C 606.35 352.03 606.37 343.01 611.85 339.89 C 617.24 336.60 623.93 337.76 629.71 335.71 C 632.24 333.91 631.17 329.65 629.27 327.66 C 623.90 323.68 613.97 325.70 613.25 333.27 C 612.20 333.25 610.11 333.23 609.07 333.22 C 609.73 330.00 610.67 326.53 613.59 324.64 M 615.36 342.34 C 611.47 344.13 610.88 350.36 614.81 352.43 C 619.14 354.63 624.83 353.50 628.47 350.41 C 631.67 347.62 631.15 342.97 631.33 339.16 C 626.17 341.08 620.39 340.06 615.36 342.34 Z" />
<path fill="#000000" opacity="1.00" d=" M 666.18 323.22 C 671.52 321.59 678.24 321.40 682.67 325.33 C 685.76 328.79 684.88 333.75 685.01 338.01 C 685.17 343.20 684.53 348.46 685.49 353.60 C 686.38 353.50 688.16 353.29 689.05 353.19 C 688.99 354.35 688.95 355.51 688.90 356.67 C 686.82 356.87 684.56 357.36 682.64 356.29 C 681.40 355.39 681.33 353.69 680.83 352.39 C 675.99 357.44 667.63 359.00 661.53 355.46 C 656.60 352.34 656.05 344.20 660.75 340.64 C 664.95 337.40 670.57 337.59 675.56 336.76 C 677.29 336.40 679.51 336.42 680.56 334.72 C 681.79 331.70 680.42 327.67 677.18 326.60 C 673.70 325.43 669.59 325.53 666.39 327.43 C 664.32 328.63 663.85 331.16 663.12 333.23 C 662.08 333.24 660.02 333.26 658.99 333.27 C 659.39 328.92 661.79 324.57 666.18 323.22 M 665.42 342.32 C 661.38 343.88 660.63 350.23 664.47 352.44 C 668.85 354.82 674.76 353.60 678.36 350.32 C 681.54 347.55 680.97 342.99 681.02 339.22 C 676.00 341.18 670.35 340.17 665.42 342.32 Z" />
<path fill="#000000" opacity="1.00" d=" M 406.44 323.00 C 407.93 322.99 409.44 322.99 410.94 322.99 C 414.54 332.38 418.08 341.79 421.64 351.20 C 425.12 341.79 428.73 332.43 432.26 323.03 C 433.77 323.01 435.29 322.99 436.81 322.98 C 432.46 334.15 428.12 345.31 423.81 356.49 C 422.28 356.49 420.76 356.50 419.25 356.52 C 415.01 345.33 410.73 334.16 406.44 323.00 Z" />
<path fill="#000000" opacity="1.00" d=" M 478.25 323.00 C 479.58 322.99 480.91 322.99 482.25 323.00 C 482.26 334.15 482.25 345.30 482.25 356.46 C 481.27 356.49 479.29 356.55 478.31 356.58 C 478.18 345.38 478.29 334.19 478.25 323.00 Z" />
<path fill="#000000" opacity="1.00" d=" M 473.65 383.10 C 474.59 377.66 479.82 374.09 484.99 373.28 C 490.66 372.39 497.28 373.04 501.41 377.49 C 503.97 379.93 504.69 383.57 504.92 386.95 C 503.46 386.96 502.01 386.97 500.57 386.99 C 500.09 384.85 499.96 382.45 498.39 380.77 C 494.58 376.21 487.47 376.02 482.42 378.41 C 477.64 380.62 476.21 388.02 480.69 391.25 C 487.57 395.67 496.96 394.15 503.21 399.84 C 508.39 405.55 506.71 416.18 499.60 419.59 C 492.35 422.82 482.67 422.95 476.50 417.42 C 473.35 414.69 472.52 410.43 472.15 406.49 C 473.67 406.50 475.19 406.51 476.72 406.54 C 477.32 409.66 478.17 413.13 480.89 415.11 C 485.34 418.34 491.49 418.48 496.48 416.51 C 501.86 414.25 503.56 405.88 498.61 402.33 C 492.06 397.98 483.16 399.17 476.97 394.08 C 473.70 391.53 473.06 386.95 473.65 383.10 Z" />
<path fill="#000000" opacity="1.00" d=" M 339.74 374.26 C 341.07 374.25 342.41 374.24 343.75 374.25 C 343.75 389.67 343.75 405.09 343.75 420.51 C 342.74 420.51 340.72 420.50 339.71 420.49 C 339.74 418.65 339.77 416.82 339.85 414.99 C 335.44 422.00 325.00 423.55 318.59 418.47 C 314.26 415.05 313.06 409.24 312.98 404.01 C 312.98 398.10 314.90 391.49 320.20 388.20 C 326.49 384.45 335.36 385.99 339.79 391.93 C 339.70 386.04 339.77 380.15 339.74 374.26 M 324.47 390.63 C 317.14 393.94 316.22 403.60 318.34 410.44 C 320.39 417.65 330.60 420.20 335.80 414.83 C 340.87 409.12 341.02 399.65 336.38 393.64 C 333.67 390.06 328.55 389.13 324.47 390.63 Z" />
<path fill="#000000" opacity="1.00" d=" M 407.00 374.25 C 408.41 374.24 409.83 374.24 411.25 374.25 C 411.25 389.66 411.25 405.08 411.25 420.50 C 409.83 420.50 408.41 420.50 407.00 420.51 C 407.00 405.09 407.00 389.67 407.00 374.25 Z" />
<path fill="#000000" opacity="1.00" d=" M 549.50 374.25 C 550.82 374.24 552.16 374.25 553.51 374.25 C 553.50 389.67 553.50 405.08 553.50 420.50 C 552.50 420.50 550.50 420.50 549.50 420.50 C 549.50 405.09 549.50 389.67 549.50 374.25 Z" />
<path fill="#000000" opacity="1.00" d=" M 600.00 378.00 C 601.41 377.99 602.83 378.00 604.25 378.00 C 604.25 381.00 604.25 383.99 604.25 386.99 C 606.24 386.99 608.24 386.99 610.25 387.00 C 610.25 387.88 610.25 389.63 610.25 390.51 C 608.24 390.50 606.25 390.50 604.25 390.50 C 604.33 398.95 604.09 407.41 604.35 415.85 C 604.94 418.67 608.60 417.45 610.59 417.44 C 610.55 418.30 610.48 420.00 610.44 420.85 C 607.81 421.22 604.87 422.13 602.43 420.61 C 600.08 419.35 600.07 416.35 600.00 414.04 C 599.98 406.19 600.01 398.35 600.00 390.50 C 598.41 390.50 596.83 390.50 595.26 390.51 C 595.24 389.33 595.24 388.17 595.24 387.01 C 596.82 387.00 598.40 386.99 600.00 386.99 C 599.99 383.99 600.00 380.99 600.00 378.00 Z" />
<path fill="#000000" opacity="1.00" d=" M 355.47 391.46 C 360.58 384.83 371.87 384.28 377.45 390.58 C 380.79 394.46 381.51 399.79 381.60 404.73 C 372.93 404.77 364.26 404.72 355.59 404.76 C 356.03 409.18 357.33 414.20 361.59 416.43 C 367.29 419.72 375.51 416.64 376.92 410.00 C 378.44 410.00 379.98 410.01 381.51 410.03 C 380.14 414.05 377.90 418.19 373.87 420.04 C 369.26 421.97 363.78 421.95 359.24 419.82 C 354.74 417.59 352.32 412.69 351.70 407.89 C 350.97 402.24 351.72 395.98 355.47 391.46 M 359.78 392.75 C 357.26 394.98 356.47 398.38 355.66 401.49 C 362.91 401.50 370.17 401.52 377.43 401.47 C 376.97 399.14 376.78 396.65 375.41 394.62 C 372.46 389.14 364.00 388.37 359.78 392.75 Z" />
<path fill="#000000" opacity="1.00" d=" M 425.44 388.35 C 429.83 385.77 435.39 385.51 440.21 386.94 C 443.60 387.90 446.24 390.92 446.43 394.48 C 446.80 402.12 446.03 409.79 446.89 417.40 C 448.22 417.38 449.55 417.33 450.89 417.25 C 450.80 418.35 450.72 419.44 450.64 420.55 C 448.41 420.83 445.83 421.51 443.89 420.01 C 442.98 419.00 442.88 417.53 442.41 416.32 C 439.42 419.34 435.35 421.35 431.04 421.29 C 426.63 421.62 421.39 419.77 419.76 415.31 C 418.50 411.61 419.09 406.80 422.53 404.46 C 428.07 400.37 435.48 402.04 441.59 399.54 C 443.46 396.99 442.53 392.90 439.94 391.18 C 434.50 388.04 425.30 389.96 424.68 397.24 C 423.28 397.24 421.90 397.24 420.51 397.24 C 421.14 393.87 422.25 390.15 425.44 388.35 M 426.56 406.52 C 422.68 408.37 422.40 414.71 426.38 416.58 C 430.79 418.69 436.58 417.50 440.12 414.19 C 443.11 411.35 442.46 406.95 442.53 403.24 C 437.38 405.21 431.51 404.03 426.56 406.52 Z" />
<path fill="#000000" opacity="1.00" d=" M 519.56 387.51 C 524.45 385.57 530.39 385.44 535.08 388.01 C 537.99 389.56 539.04 392.99 539.16 396.09 C 539.44 402.70 539.07 409.32 539.31 415.94 C 539.10 418.19 542.02 417.30 543.29 417.20 C 543.28 418.01 543.25 419.64 543.24 420.46 C 541.10 420.84 538.72 421.44 536.73 420.26 C 535.36 419.46 535.55 417.55 535.08 416.26 C 531.91 419.42 527.57 421.48 523.04 421.29 C 519.12 421.44 514.64 419.97 512.75 416.27 C 510.79 412.37 511.39 406.76 515.29 404.26 C 520.91 400.41 528.27 402.07 534.28 399.44 C 536.01 396.46 534.82 392.05 531.58 390.65 C 528.03 389.37 523.81 389.40 520.53 391.41 C 518.39 392.59 517.95 395.17 517.18 397.27 C 516.15 397.26 514.07 397.22 513.03 397.20 C 513.60 393.19 515.58 389.08 519.56 387.51 M 519.39 406.41 C 515.74 407.97 514.76 413.47 517.94 415.97 C 522.28 418.95 528.59 417.70 532.43 414.43 C 535.62 411.61 535.02 407.08 535.01 403.29 C 529.96 405.14 524.26 404.06 519.39 406.41 Z" />
<path fill="#000000" opacity="1.00" d=" M 563.25 387.00 C 564.58 386.99 565.91 387.00 567.25 387.00 C 567.27 394.33 567.23 401.66 567.26 408.99 C 567.25 411.76 567.96 414.94 570.52 416.46 C 574.34 418.65 579.72 418.02 582.64 414.61 C 585.12 411.74 585.72 407.78 585.75 404.10 C 585.77 398.40 585.73 392.70 585.75 387.00 C 587.08 387.00 588.41 387.00 589.75 387.00 C 589.75 398.17 589.75 409.34 589.75 420.51 C 588.75 420.51 586.74 420.50 585.74 420.50 C 585.73 419.05 585.76 417.62 585.78 416.18 C 581.55 421.66 573.34 423.08 567.47 419.49 C 564.58 417.32 563.17 413.59 563.24 410.05 C 563.24 402.36 563.26 394.68 563.25 387.00 Z" />
</g>
<g id="#fefefeff">
</g>
</svg>
